# xmcd CD database file
#
# Track frame offsets:
#	183
#	17395
#	33433
#	59558
#	75170
#	87145
#	103845
#	127295
#	146870
#	162620
#
# Disc length: 2202 seconds
#
# Revision: 0
# Processed by: cddbd v1.4PL0 Copyright (c) Steve Scherf et al.
# Submitted via: Feurio! 1.65 - http://www.feurio.com
#
DISCID=8408980a
DTITLE=Bobby Mack and Night Train - Say Whhat!
DYEAR=1990
DGENRE=Blues
TTITLE0=By The Minute
TTITLE1=Change It
TTITLE2=She's So Fine
TTITLE3=Treat Her Like A Lady
TTITLE4=Take It Home
TTITLE5=Before You Accuse Me
TTITLE6=Change My Mind
TTITLE7=Give It Up
TTITLE8=Piece Of My Heart
TTITLE9=42nd Street
EXTD=ARD Provogue PRD 70502 1990
EXTT0=
EXTT1=
EXTT2=
EXTT3=
EXTT4=
EXTT5=
EXTT6=
EXTT7=
EXTT8=
EXTT9=
PLAYORDER=
